<svg width="313" height="175" viewBox="0 0 313 175" fill="none" xmlns="http://www.w3.org/2000/svg">
<g clip-path="url(#clip0_115_268)">
<path d="M217.077 55.5274H211.128C210.937 55.528 210.753 55.4574 210.611 55.3294C210.47 55.2014 210.382 55.0252 210.364 54.8354L209.173 42.6498H219.032L217.841 54.8353C217.823 55.025 217.735 55.2013 217.594 55.3293C217.452 55.4574 217.268 55.528 217.077 55.5274Z" fill="#E6E6E6"/>
<path d="M219.016 44.1829H209.188C208.985 44.1826 208.79 44.1018 208.646 43.9581C208.502 43.8144 208.421 43.6196 208.421 43.4164V41.5767C208.421 41.3735 208.502 41.1786 208.646 41.0349C208.79 40.8912 208.985 40.8104 209.188 40.8102H219.016C219.22 40.8104 219.415 40.8912 219.559 41.0349C219.703 41.1786 219.784 41.3735 219.784 41.5767V43.4164C219.784 43.6196 219.703 43.8144 219.559 43.9581C219.415 44.1018 219.22 44.1826 219.016 44.1829Z" fill="#CCCCCC"/>
<path d="M147.472 42.437H123.903V35.2941C131.351 30.1198 137.95 30.5696 146.63 35.7143L147.472 42.437Z" fill="#50C2C9"/>
<path d="M118.446 169.31L113.286 169.309L112.514 149.44L118.447 149.441L118.446 169.31Z" fill="#FFB8B8"/>
<path d="M119.761 174.303L103.124 174.302V174.092C103.124 173.243 103.292 172.402 103.617 171.618C103.943 170.834 104.42 170.121 105.021 169.521C105.622 168.92 106.336 168.444 107.122 168.119C107.908 167.794 108.75 167.627 109.6 167.627L119.762 167.628L119.761 174.303Z" fill="#2F2E41"/>
<path d="M147.508 169.31L152.668 169.309L153.439 149.44L147.507 149.441L147.508 169.31Z" fill="#FFB8B8"/>
<path d="M146.192 167.628L156.353 167.627C157.204 167.627 158.046 167.794 158.832 168.119C159.617 168.444 160.331 168.92 160.933 169.521C161.534 170.121 162.011 170.834 162.336 171.618C162.662 172.402 162.829 173.243 162.829 174.092V174.302L146.192 174.303L146.192 167.628Z" fill="#2F2E41"/>
<path d="M147.644 166.763C147.213 166.762 146.796 166.615 146.46 166.346C146.124 166.077 145.889 165.702 145.794 165.283L133.006 109.594C132.978 109.453 132.9 109.326 132.788 109.236C132.675 109.145 132.534 109.098 132.389 109.101H132.386C132.241 109.098 132.1 109.147 131.987 109.239C131.875 109.33 131.798 109.458 131.772 109.6L120.028 164.914C119.936 165.337 119.702 165.716 119.365 165.989C119.028 166.261 118.608 166.411 118.175 166.412H112.58C112.322 166.412 112.067 166.359 111.83 166.257C111.593 166.155 111.379 166.006 111.202 165.818C111.025 165.631 110.888 165.409 110.8 165.167C110.712 164.925 110.674 164.667 110.69 164.41L114.857 94.3025L116.533 93.8072L116.565 93.8076L149.501 94.0953L156.516 164.125C156.54 164.375 156.515 164.627 156.441 164.867C156.366 165.107 156.245 165.33 156.084 165.522C155.923 165.715 155.725 165.873 155.501 165.988C155.278 166.104 155.034 166.173 154.783 166.193L147.795 166.757C147.744 166.761 147.694 166.763 147.644 166.763Z" fill="#2F2E41"/>
<path d="M134.042 29.6352C139.751 29.6352 144.379 25.0149 144.379 19.3155C144.379 13.616 139.751 8.99573 134.042 8.99573C128.333 8.99573 123.705 13.616 123.705 19.3155C123.705 25.0149 128.333 29.6352 134.042 29.6352Z" fill="#FFB8B8"/>
<path d="M127.71 101.989C125.896 102.011 124.09 101.758 122.353 101.237C120.808 100.771 119.375 99.9956 118.142 98.9569C116.909 97.9182 115.902 96.6385 115.182 95.1966C114.955 94.7627 114.904 94.2575 115.041 93.7871C116.182 89.9026 121.691 69.7112 118.176 53.6599C117.679 51.43 117.638 49.1233 118.054 46.8772C118.47 44.6311 119.335 42.4918 120.598 40.5866C121.831 38.6965 123.432 37.0736 125.307 35.8147C127.182 34.5559 129.291 33.6869 131.51 33.2595L131.51 33.2591C132.093 33.1455 132.679 33.0523 133.252 32.9817C135.704 32.6804 138.193 32.9239 140.54 33.6948C142.887 34.4657 145.034 35.745 146.828 37.4411C148.675 39.1705 150.117 41.2862 151.049 43.6368C151.982 45.9874 152.382 48.5147 152.222 51.0379L149.52 94.3168C149.501 94.6413 149.399 94.9553 149.222 95.2281C149.045 95.5009 148.8 95.7231 148.511 95.8728C145.4 97.5005 136.053 101.989 127.71 101.989Z" fill="#3F3D56"/>
<path d="M145.72 11.7192C144.646 9.02511 142.679 6.78019 140.148 5.35916C137.616 3.93812 134.673 3.42693 131.809 3.91092L135.068 6.54025C131.019 6.67638 126.756 6.38693 123.865 9.22064C124.785 9.19515 125.992 11.1607 126.912 11.1352C125.191 11.1692 123.631 12.3763 122.871 13.9181C122.167 15.502 122.002 17.2726 122.402 18.9589C122.742 20.6434 125.335 24.5898 126.033 26.1606C125.913 22.0555 134.008 12.2638 137.961 13.2856C135.952 14.0296 134.21 15.3506 132.952 17.082C135.641 15.727 138.683 15.2302 141.664 15.6589C142.345 15.8147 143.048 15.854 143.741 15.7749C144.167 15.6909 144.563 15.4995 144.893 15.2189C145.224 14.9382 145.476 14.5778 145.627 14.172C145.778 13.7662 145.822 13.3286 145.755 12.9009C145.688 12.4733 145.512 12.0699 145.245 11.7293L145.72 11.7192Z" fill="#2F2E41"/>
<path d="M126.998 99.3903C126.737 99.3897 126.478 99.3353 126.239 99.2304L106.627 90.6841C106.21 90.5058 105.872 90.1833 105.675 89.7759C105.477 89.3686 105.434 88.9037 105.552 88.4669L118.536 39.5009C118.777 38.5898 119.198 37.7359 119.774 36.9892C120.35 36.2425 121.07 35.618 121.89 35.1523C122.711 34.6866 123.616 34.3889 124.554 34.2769C125.491 34.1648 126.441 34.2405 127.349 34.4995L132.541 35.9787L128.886 97.6093C128.867 97.9133 128.775 98.2084 128.618 98.4695C128.461 98.7306 128.243 98.95 127.983 99.1092C127.687 99.2921 127.346 99.3894 126.998 99.3903Z" fill="#50C2C9"/>
<path d="M163.296 88.4664L162.434 85.2185L161.184 80.4958L160.582 78.2311L159.332 73.521L150.313 39.5C150.072 38.5885 149.652 37.7341 149.076 36.9871C148.5 36.24 147.78 35.6153 146.96 35.1495C146.139 34.6838 145.233 34.3864 144.295 34.2749C143.358 34.1634 142.407 34.2399 141.5 34.5L136.31 35.979L138.882 79.3277L139.147 83.853L139.315 86.7059V86.7101L139.585 91.2101L139.964 97.6092C139.995 98.0897 140.207 98.5406 140.557 98.8712C140.908 99.2018 141.371 99.3874 141.853 99.3908C142.114 99.3892 142.372 99.3349 142.611 99.2311L162.223 90.6849C162.64 90.5066 162.978 90.1838 163.176 89.7761C163.373 89.3684 163.416 88.9032 163.296 88.4664Z" fill="#50C2C9"/>
<path d="M160.582 78.2311L139.147 83.8529L138.882 79.3277L159.332 73.521L160.582 78.2311Z" fill="#CCCCCC"/>
<path d="M162.433 85.2185L139.585 91.2101L139.316 86.7101V86.7059L161.184 80.4958L162.433 85.2185Z" fill="#CCCCCC"/>
<path d="M129.703 80.3025L129.438 84.7437L108.416 78.4916L109.648 73.8445L129.703 80.3025Z" fill="#CCCCCC"/>
<path d="M129.265 87.6681L107.813 80.7563L106.58 85.416L129.004 92.084L129.265 87.6681Z" fill="#CCCCCC"/>
<path d="M108.188 92.3126C108.827 92.146 109.422 91.8413 109.931 91.4202C110.44 90.9991 110.85 90.4717 111.133 89.8752C111.415 89.2787 111.564 88.6276 111.567 87.9677C111.57 87.3078 111.429 86.6553 111.152 86.056L121.237 54.4486L114.086 52.9534L104.84 83.9421C103.862 84.4728 103.113 85.3431 102.735 86.3881C102.358 87.4331 102.377 88.5801 102.79 89.6119C103.202 90.6437 103.98 91.4885 104.975 91.9862C105.969 92.484 107.113 92.6001 108.188 92.3126Z" fill="#FFB8B8"/>
<path d="M121.517 38.91C123.57 39.1191 124.725 41.4241 124.215 44.2941L121.765 58.0665C121.581 59.0989 120.73 59.9163 120.023 59.7398L111.735 57.6717C111.098 57.5126 110.863 56.6081 111.224 55.7031L116.199 43.2437C117.28 40.5379 119.526 38.7072 121.517 38.91Z" fill="#3F3D56"/>
<path d="M134.004 2.37023e-10C137.503 0.000374616 140.864 1.36012 143.375 3.7913C145.887 6.22249 147.353 9.53421 147.461 13.0252H149.997C150.22 13.0252 150.434 13.1138 150.592 13.2713C150.75 13.4289 150.839 13.6427 150.839 13.8655V17.2269C150.839 17.4498 150.75 17.6635 150.592 17.8211C150.434 17.9787 150.22 18.0672 149.997 18.0672H121.378C121.155 18.0672 120.941 17.9787 120.783 17.8211C120.625 17.6635 120.536 17.4498 120.536 17.2269V13.4454C120.536 11.6797 120.885 9.93129 121.562 8.30002C122.238 6.66875 123.23 5.18655 124.481 3.93803C125.732 2.68951 127.216 1.69913 128.85 1.02344C130.484 0.347753 132.235 -1.04835e-05 134.004 2.37023e-10Z" fill="#50C2C9"/>
<path d="M135.613 83.1113H129.664C129.473 83.1119 129.289 83.0413 129.148 82.9132C129.006 82.7852 128.918 82.609 128.9 82.4193L127.709 70.2337H137.568L136.378 82.4192C136.36 82.6089 136.271 82.7851 136.13 82.9132C135.989 83.0413 135.804 83.1119 135.613 83.1113Z" fill="#E6E6E6"/>
<path d="M137.553 71.7667H127.725C127.521 71.7665 127.326 71.6857 127.182 71.542C127.038 71.3983 126.957 71.2034 126.957 71.0002V69.1606C126.957 68.9573 127.038 68.7625 127.182 68.6188C127.326 68.4751 127.521 68.3943 127.725 68.3941H137.553C137.756 68.3943 137.951 68.4751 138.095 68.6188C138.239 68.7625 138.32 68.9573 138.32 69.1606V71.0002C138.32 71.2034 138.239 71.3983 138.095 71.542C137.951 71.6857 137.756 71.7665 137.553 71.7667Z" fill="#CCCCCC"/>
<path d="M132.766 76.5763C132.998 76.6029 133.227 76.6478 133.451 76.7104L149.295 63.1456L148.369 58.1686L155.71 55.7915L158.207 64.4433C158.409 65.1422 158.378 65.8876 158.119 66.5676C157.861 67.2476 157.388 67.8255 156.772 68.2144L136.706 80.8911C136.721 81.7866 136.461 82.6652 135.963 83.4101C135.465 84.155 134.751 84.7308 133.917 85.061C133.084 85.3911 132.169 85.46 131.295 85.2584C130.42 85.0567 129.628 84.5942 129.024 83.9323C128.42 83.2704 128.031 82.4405 127.911 81.553C127.791 80.6654 127.944 79.7623 128.35 78.9637C128.756 78.1652 129.396 77.509 130.185 77.0826C130.974 76.6561 131.875 76.4795 132.766 76.5763Z" fill="#FFB8B8"/>
<path d="M149.336 40.0476C151.53 39.4346 153.721 41.1013 154.456 43.9408L157.98 57.5669C158.244 58.5884 157.731 59.6739 156.929 59.7889L147.541 61.1371C146.819 61.2408 146.182 60.5012 146.156 59.5272L145.791 46.1183C145.712 43.2063 147.21 40.6419 149.336 40.0476Z" fill="#3F3D56"/>
<path d="M275.526 127.088C271.203 121.348 267.786 114.982 265.393 108.209C265.255 107.804 265.264 107.363 265.421 106.965C265.578 106.566 265.871 106.236 266.248 106.033L281.04 98.1207C281.279 97.9917 281.545 97.919 281.816 97.908C282.088 97.897 282.359 97.948 282.608 98.0572C282.861 98.1672 283.087 98.3335 283.266 98.5435C283.446 98.7535 283.575 99.0016 283.644 99.2689C285.365 105.795 288.601 111.824 293.09 116.87C293.275 117.075 293.41 117.32 293.486 117.586C293.562 117.851 293.576 118.13 293.527 118.402C293.48 118.67 293.373 118.923 293.213 119.143C293.054 119.362 292.846 119.543 292.606 119.67L277.814 127.583C277.436 127.784 276.998 127.845 276.579 127.754C276.16 127.664 275.787 127.428 275.526 127.088Z" fill="#CCCCCC"/>
<path d="M276.535 126.331C276.615 126.43 276.727 126.498 276.851 126.524C276.976 126.55 277.105 126.531 277.218 126.472L292.009 118.559C292.081 118.522 292.143 118.468 292.191 118.403C292.239 118.338 292.271 118.262 292.284 118.182C292.3 118.098 292.295 118.012 292.271 117.929C292.248 117.847 292.205 117.771 292.147 117.708C287.526 112.514 284.195 106.307 282.422 99.5886C282.402 99.5056 282.362 99.4285 282.307 99.3632C282.252 99.298 282.182 99.2464 282.103 99.2126C282.029 99.1795 281.949 99.164 281.867 99.1674C281.786 99.1707 281.707 99.1928 281.636 99.2319L266.845 107.144C266.733 107.205 266.645 107.302 266.598 107.42C266.55 107.538 266.545 107.669 266.584 107.79C268.934 114.441 272.29 120.694 276.535 126.331Z" fill="white"/>
<path d="M282.011 109.413L273.955 112.963C273.648 113.097 273.301 113.105 272.989 112.985C272.677 112.864 272.425 112.624 272.29 112.319L272.091 111.868C271.956 111.562 271.948 111.215 272.069 110.904C272.19 110.592 272.43 110.341 272.736 110.206L280.792 106.656C281.098 106.521 281.446 106.513 281.758 106.634C282.07 106.755 282.321 106.994 282.457 107.3L282.656 107.75C282.791 108.056 282.799 108.403 282.678 108.715C282.557 109.026 282.317 109.277 282.011 109.413Z" fill="#CCCCCC"/>
<path d="M284.957 114.875L276.901 118.425C276.594 118.56 276.247 118.567 275.935 118.447C275.623 118.326 275.371 118.087 275.236 117.781L275.037 117.33C274.902 117.024 274.894 116.678 275.015 116.366C275.136 116.054 275.376 115.803 275.682 115.668L283.738 112.118C284.044 111.983 284.392 111.975 284.704 112.096C285.016 112.217 285.267 112.456 285.403 112.762L285.602 113.213C285.737 113.518 285.745 113.865 285.624 114.177C285.503 114.489 285.263 114.739 284.957 114.875Z" fill="#CCCCCC"/>
<path d="M266.063 110.323C265.507 109.966 265.036 109.492 264.684 108.934C264.331 108.376 264.106 107.747 264.023 107.092C263.94 106.438 264.002 105.773 264.205 105.145C264.407 104.516 264.745 103.94 265.195 103.457L261.797 55.323L271.584 56.2705L271.853 103.408C272.617 104.216 273.057 105.275 273.09 106.386C273.124 107.496 272.748 108.581 272.035 109.433C271.321 110.285 270.319 110.847 269.218 111.011C268.118 111.175 266.995 110.93 266.063 110.323Z" fill="#A0616A"/>
<path d="M264.013 71.4965C263.784 71.332 263.594 71.1182 263.459 70.8709C263.324 70.6236 263.246 70.3491 263.231 70.0677L262.514 57.0945C262.443 55.8092 262.851 54.5432 263.659 53.5406C264.468 52.538 265.62 51.8698 266.893 51.6648C268.166 51.4598 269.47 51.7326 270.553 52.4306C271.637 53.1285 272.423 54.2022 272.76 55.4446L275.91 67.0433C276.041 67.5273 275.974 68.0433 275.724 68.4782C275.475 68.913 275.062 69.2312 274.578 69.363L265.617 71.7884C265.345 71.8626 265.06 71.875 264.782 71.8245C264.504 71.7739 264.241 71.6619 264.013 71.4965Z" fill="#3F3D56"/>
<path d="M247.333 169.499H242.173L239.719 149.63H247.334L247.333 169.499Z" fill="#A0616A"/>
<path d="M238.488 168.027H248.439V174.282H232.223C232.223 173.461 232.385 172.647 232.699 171.888C233.014 171.13 233.476 170.44 234.058 169.859C234.639 169.278 235.33 168.818 236.09 168.503C236.85 168.189 237.665 168.027 238.488 168.027Z" fill="#2F2E41"/>
<path d="M266.693 169.499H261.533L259.079 149.63H266.694L266.693 169.499Z" fill="#A0616A"/>
<path d="M257.848 168.027H267.799V174.282H251.582C251.582 173.461 251.744 172.647 252.059 171.888C252.374 171.13 252.836 170.44 253.417 169.859C253.999 169.278 254.69 168.818 255.45 168.503C256.21 168.189 257.025 168.027 257.848 168.027Z" fill="#2F2E41"/>
<path d="M247.089 159.49L241.409 159.219C240.925 159.196 240.469 158.989 240.133 158.64C239.798 158.292 239.609 157.828 239.605 157.344C238.108 134.269 236.034 109.526 239.209 99.9673C239.207 99.695 239.264 99.4254 239.376 99.1771C239.489 98.9288 239.653 98.7076 239.859 98.5287C240.064 98.3497 240.306 98.2172 240.568 98.1403C240.83 98.0633 241.105 98.0437 241.375 98.0827L264.099 101.376C264.548 101.439 264.959 101.661 265.257 102.002C265.555 102.343 265.72 102.78 265.721 103.233C268.622 114.551 268.753 135.074 268.644 156.399C268.646 156.648 268.598 156.896 268.504 157.127C268.409 157.358 268.27 157.568 268.094 157.745C267.918 157.922 267.709 158.063 267.478 158.158C267.247 158.254 267 158.304 266.75 158.304H260.626C260.174 158.306 259.737 158.145 259.394 157.852C259.05 157.559 258.824 157.153 258.755 156.707L254.977 132.729C254.922 132.378 254.741 132.059 254.469 131.831C254.196 131.602 253.85 131.48 253.495 131.487C253.139 131.493 252.798 131.628 252.534 131.866C252.27 132.105 252.102 132.43 252.059 132.783L249.06 157.826C249.004 158.285 248.781 158.707 248.435 159.014C248.089 159.32 247.642 159.491 247.179 159.492C247.15 159.492 247.12 159.491 247.089 159.49Z" fill="#2F2E41"/>
<path d="M251.088 103.236C246.08 100.458 242.167 99.7277 240.28 99.5398C240.03 99.5156 239.786 99.4409 239.565 99.3201C239.345 99.1992 239.15 99.0349 238.995 98.8369C238.836 98.6376 238.72 98.4081 238.652 98.1625C238.585 97.9168 238.568 97.6601 238.603 97.4078L244.048 57.0503C244.362 54.6893 245.275 52.4476 246.702 50.5386C248.128 48.6296 250.02 47.1167 252.198 46.144C254.306 45.1766 256.626 44.7638 258.939 44.9448C261.252 45.1258 263.48 45.8946 265.411 47.178C265.598 47.3019 265.781 47.4284 265.96 47.5575C268.184 49.1843 269.876 51.4319 270.822 54.017C271.769 56.6021 271.928 59.4091 271.279 62.0841C267.94 75.7207 266.793 98.0766 266.597 102.42C266.581 102.79 266.456 103.147 266.238 103.447C266.019 103.746 265.717 103.974 265.369 104.103C263.314 104.848 261.146 105.233 258.96 105.242C256.207 105.258 253.496 104.567 251.088 103.236Z" fill="#3F3D56"/>
<path d="M255.643 40.6642C261.352 40.6642 265.98 36.0439 265.98 30.3444C265.98 24.645 261.352 20.0247 255.643 20.0247C249.934 20.0247 245.306 24.645 245.306 30.3444C245.306 36.0439 249.934 40.6642 255.643 40.6642Z" fill="#A0616A"/>
<path d="M262.957 38.509C261.029 40.5597 257.448 39.4588 257.197 36.6572C257.177 36.4397 257.178 36.2208 257.201 36.0036C257.331 34.7626 258.049 33.6359 257.877 32.3256C257.838 31.9995 257.716 31.6887 257.523 31.4227C255.986 29.3683 252.379 32.3415 250.929 30.4818C250.04 29.3415 251.085 27.546 250.402 26.2715C249.502 24.5893 246.834 25.4191 245.161 24.4979C243.3 23.4729 243.411 20.6217 244.636 18.8875C246.131 16.7726 248.751 15.644 251.338 15.4814C253.925 15.3187 256.495 16.017 258.91 16.9568C261.655 18.0246 264.376 19.5003 266.065 21.9095C268.119 24.8394 268.317 28.7784 267.29 32.2044C266.665 34.2884 264.532 36.8343 262.957 38.509Z" fill="#2F2E41"/>
<path d="M271.144 48.542C270.963 47.6933 269.41 46.5336 267.187 45.5882C263.616 44.1439 259.752 43.5624 255.913 43.8909C252.073 44.2195 248.366 45.4489 245.092 47.479C244.864 47.4913 244.646 47.5781 244.471 47.7261C244.297 47.8741 244.177 48.0752 244.128 48.2983L236.653 81.3025L235.681 85.6008L235.037 88.4454L234.065 92.7311L233.548 95.021C233.514 95.1674 233.513 95.3192 233.543 95.4661C233.574 95.6131 233.635 95.7519 233.724 95.8732C233.812 95.9946 233.926 96.0956 234.056 96.1697C234.187 96.2437 234.332 96.289 234.482 96.3025L266.758 99.084C266.788 99.084 266.821 99.0882 266.851 99.0882C267.117 99.0866 267.373 98.9843 267.566 98.8018C267.76 98.6194 267.877 98.3704 267.894 98.105L268.202 93.437L268.53 88.4454L268.673 86.2815L268.997 81.3025L271.148 48.5966V48.5672L271.144 48.542Z" fill="#50C2C9"/>
<path d="M218.184 50.6195C218.236 50.8462 218.269 51.0766 218.285 51.3086L236.364 61.7212L240.758 59.1956L245.443 65.3184L236.042 72.0077L215.416 55.7629C214.575 56.0737 213.659 56.1214 212.79 55.8998C211.921 55.6781 211.14 55.1976 210.551 54.522C209.962 53.8465 209.593 53.008 209.494 52.1181C209.394 51.2282 209.567 50.329 209.992 49.5401C210.416 48.7512 211.071 48.11 211.87 47.7018C212.668 47.2936 213.572 47.1377 214.461 47.2549C215.351 47.3721 216.183 47.7568 216.848 48.3578C217.513 48.9588 217.979 49.7477 218.184 50.6195Z" fill="#A0616A"/>
<path d="M237.01 60.8358C236.98 60.5556 237.013 60.2722 237.107 60.0065C237.201 59.7408 237.354 59.4997 237.554 59.3008L246.755 50.1123C247.667 49.202 248.884 48.661 250.172 48.5935C251.459 48.5259 252.726 48.9367 253.729 49.7466C254.731 50.5565 255.397 51.7082 255.599 52.9796C255.801 54.2509 255.525 55.5519 254.823 56.6317L248.27 66.7125C247.996 67.1327 247.566 67.4273 247.075 67.5317C246.584 67.6361 246.072 67.5417 245.65 67.2693L237.862 62.2237C237.625 62.0707 237.426 61.8666 237.278 61.6264C237.13 61.3863 237.039 61.1161 237.01 60.8358Z" fill="#3F3D56"/>
<path d="M268.997 81.3025L268.673 86.2815L235.681 85.6008L236.653 81.3025H268.997Z" fill="#CCCCCC"/>
<path d="M268.53 88.4454L268.201 93.437L234.065 92.7311L235.038 88.4454H268.53Z" fill="#CCCCCC"/>
<path d="M255.845 10.2941C252.346 10.2945 248.985 11.6542 246.474 14.0854C243.962 16.5166 242.497 19.8283 242.388 23.3193H239.852C239.629 23.3193 239.415 23.4079 239.257 23.5655C239.099 23.7231 239.01 23.9368 239.01 24.1597V27.521C239.01 27.7439 239.099 27.9576 239.257 28.1152C239.415 28.2728 239.629 28.3613 239.852 28.3613H268.471C268.694 28.3613 268.908 28.2728 269.066 28.1152C269.224 27.9576 269.313 27.7439 269.313 27.521V23.7395C269.313 21.9738 268.964 20.2254 268.288 18.5941C267.611 16.9629 266.619 15.4807 265.368 14.2321C264.117 12.9836 262.633 11.9933 260.999 11.3176C259.365 10.6419 257.614 10.2941 255.845 10.2941Z" fill="#50C2C9"/>
<path d="M45.5017 144.141C42.8381 145.076 39.9783 145.31 37.1977 144.821C34.4171 144.332 31.8095 143.136 29.6262 141.349C24.0657 136.69 22.3223 129.014 20.9038 121.906L16.7081 100.883L25.4922 106.921C31.8093 111.264 38.2687 115.745 42.6426 122.035C47.0165 128.325 48.9257 136.911 45.4114 143.717" fill="#E6E6E6"/>
<path d="M44.7509 169.594C45.6399 163.129 46.5541 156.581 45.9305 150.046C45.3766 144.243 43.6032 138.574 39.9926 133.927C38.0761 131.464 35.7441 129.355 33.1014 127.692C32.4122 127.258 31.778 128.349 32.4641 128.781C37.0367 131.666 40.5735 135.926 42.5644 140.947C44.7634 146.531 45.1165 152.618 44.7376 158.55C44.5085 162.137 44.0228 165.7 43.5334 169.259C43.4948 169.42 43.5188 169.59 43.6007 169.734C43.6825 169.878 43.8161 169.985 43.9743 170.035C44.1357 170.078 44.3078 170.056 44.4531 169.974C44.5985 169.891 44.7055 169.755 44.7509 169.594Z" fill="#F2F2F2"/>
<path d="M36.1875 158.154C35.0451 159.887 33.4748 161.298 31.6279 162.249C29.781 163.201 27.7198 163.662 25.6427 163.587C20.3048 163.334 15.8547 159.615 11.8488 156.084L0 145.64L7.84193 145.265C13.4814 144.995 19.2663 144.744 24.6377 146.48C30.0091 148.217 34.9629 152.395 35.945 157.946" fill="#E6E6E6"/>
<path d="M47.2634 173.311C42.9842 165.752 38.0206 157.35 29.1516 154.665C26.6855 153.921 24.0997 153.655 21.5334 153.88C20.7246 153.95 20.9266 155.194 21.7339 155.125C26.0356 154.768 30.329 155.902 33.8913 158.336C37.3192 160.665 39.9882 163.904 42.2472 167.338C43.6309 169.442 44.8704 171.634 46.1101 173.824C46.5063 174.524 47.6642 174.019 47.2634 173.311Z" fill="#F2F2F2"/>
<path d="M312.579 175H12.9221C12.8105 175 12.7035 174.956 12.6246 174.877C12.5456 174.798 12.5013 174.691 12.5013 174.58C12.5013 174.468 12.5456 174.362 12.6246 174.283C12.7035 174.204 12.8105 174.16 12.9221 174.16H312.579C312.691 174.16 312.798 174.204 312.877 174.283C312.956 174.362 313 174.468 313 174.58C313 174.691 312.956 174.798 312.877 174.877C312.798 174.956 312.691 175 312.579 175Z" fill="#CCCCCC"/>
</g>
<defs>
<clipPath id="clip0_115_268">
<rect width="313" height="175" fill="white"/>
</clipPath>
</defs>
</svg>
