<svg width="28" height="27" viewBox="0 0 28 27" fill="none" xmlns="http://www.w3.org/2000/svg">
<path d="M25.6951 8.41402L15.7026 0.658375C15.238 0.294836 14.6689 0.0659229 14.0657 0H13.4632C12.8553 0.0645605 12.2811 0.293482 11.8119 0.658375L1.79124 8.41402C1.27078 8.81651 0.850956 9.31952 0.560905 9.88801C0.270854 10.4565 0.117455 11.0768 0.111577 11.7059V24.2809C0.110867 24.638 0.186385 24.9918 0.333559 25.3218C0.480734 25.6517 0.696799 25.9513 0.969228 26.2033C1.24049 26.4564 1.56289 26.6571 1.91806 26.7939C2.27322 26.9306 2.65407 27.0006 3.03852 27H8.70798C8.89593 27 9.07614 26.9306 9.20904 26.8071C9.34194 26.6837 9.41666 26.5162 9.41666 26.3416V21.4565C9.42298 20.3332 9.88631 19.2537 10.7136 18.4345C11.1237 18.0231 11.62 17.6941 12.1721 17.4676C12.7243 17.2412 13.3204 17.1221 13.924 17.1178H14.0586C15.2011 17.1502 16.2867 17.5885 17.0917 18.3423C17.51 18.7289 17.8419 19.1885 18.0681 19.6947C18.2943 20.2009 18.4104 20.7437 18.4098 21.2919V26.3416C18.4098 26.5162 18.4845 26.6837 18.6174 26.8071C18.7503 26.9306 18.9305 27 19.1185 27H24.4691C24.8536 27.0014 25.2346 26.9316 25.5899 26.7949C25.9451 26.6581 26.2676 26.457 26.5384 26.2033C26.8106 25.9525 27.0267 25.6541 27.1739 25.3252C27.321 24.9963 27.3964 24.6436 27.3958 24.2875V11.7059C27.3869 11.0753 27.2302 10.4542 26.9365 9.88564C26.6427 9.31712 26.219 8.81492 25.6951 8.41402Z" fill="#EEFCFC"/>
</svg>
