<svg width="25" height="29" viewBox="0 0 25 29" fill="none" xmlns="http://www.w3.org/2000/svg">
<path fill-rule="evenodd" clip-rule="evenodd" d="M6.94444 6.44444C6.94444 4.73527 7.52976 3.0961 8.57163 1.88753C9.6135 0.678966 11.0266 0 12.5 0C13.9734 0 15.3865 0.678966 16.4284 1.88753C17.4702 3.0961 18.0556 4.73527 18.0556 6.44444C18.0556 8.15362 17.4702 9.79279 16.4284 11.0014C15.3865 12.2099 13.9734 12.8889 12.5 12.8889C11.0266 12.8889 9.6135 12.2099 8.57163 11.0014C7.52976 9.79279 6.94444 8.15362 6.94444 6.44444ZM6.94444 16.1111C5.10266 16.1111 3.33632 16.9598 2.03398 18.4705C0.731645 19.9812 0 22.0302 0 24.1667C0 25.4485 0.438987 26.6779 1.22039 27.5844C2.00179 28.4908 3.0616 29 4.16667 29H20.8333C21.9384 29 22.9982 28.4908 23.7796 27.5844C24.561 26.6779 25 25.4485 25 24.1667C25 22.0302 24.2684 19.9812 22.966 18.4705C21.6637 16.9598 19.8973 16.1111 18.0556 16.1111H6.94444Z" fill="#EEFCFC"/>
</svg>
